<svg width="512" height="512" viewBox="0 0 512 512" fill="none" xmlns="http://www.w3.org/2000/svg">
<rect width="512" height="512" rx="40" fill="black"/>
<path d="M212.992 338.347C203.435 338.347 198.656 331.179 198.656 316.843C198.656 309.788 199.794 299.776 202.07 286.805L213.675 216.491C214.585 208.299 215.04 203.634 215.04 202.496C215.04 199.083 214.13 197.376 212.31 197.376C207.076 197.376 200.932 204.203 193.878 217.856C193.422 218.766 192.626 220.359 191.488 222.635C191.088 223.536 190.709 224.305 190.353 224.942C189.641 226.213 188.508 227.413 187.051 227.413V227.413C186.596 227.413 186.141 227.072 185.686 226.389C185.23 225.479 185.003 224.455 185.003 223.317C185.003 218.766 187.278 212.395 191.83 204.203C196.608 195.783 202.411 188.388 209.238 182.016C216.064 175.644 222.55 172.459 228.694 172.459C232.334 172.459 235.179 174.052 237.227 177.237C239.502 180.196 240.64 184.291 240.64 189.525C240.64 192.939 240.413 195.556 239.958 197.376L223.915 298.069C223.46 301.255 223.232 303.303 223.232 304.213C223.232 308.992 225.053 311.381 228.694 311.381C236.203 311.381 244.281 306.375 252.928 296.363C261.803 286.123 269.54 273.948 276.139 259.84C282.966 245.732 287.403 233.33 289.451 222.635L294.23 197.717C296.05 189.525 299.691 183.268 305.152 178.944C310.841 174.62 316.075 172.459 320.854 172.459C322.674 172.459 323.584 173.028 323.584 174.165C323.584 174.848 323.129 176.213 322.219 178.261C321.309 180.082 320.626 182.357 320.171 185.088C316.985 199.196 310.727 231.964 301.398 283.392L299.35 294.315C297.757 302.279 296.96 307.171 296.96 308.992C296.96 312.178 297.984 313.771 300.032 313.771C303.673 313.771 307.655 310.926 311.979 305.237C316.53 299.321 320.171 292.949 322.902 286.123C324.267 283.619 325.405 282.368 326.315 282.368C327.68 282.368 328.363 283.392 328.363 285.44C328.363 287.943 328.135 290.105 327.68 291.925C326.087 300.117 322.902 307.74 318.123 314.795C313.344 321.849 307.997 327.538 302.08 331.861C296.164 336.185 290.702 338.347 285.696 338.347C276.822 338.347 272.612 331.292 273.067 317.184C273.522 311.04 274.887 302.734 277.163 292.267L280.193 275.771C280.215 275.651 280.123 275.541 280.001 275.541V275.541C279.934 275.541 279.872 275.576 279.836 275.633C268.022 294.478 255.98 309.693 243.712 321.28C231.424 332.658 221.184 338.347 212.992 338.347Z" fill="white"/>
</svg>
