<svg width="512" height="512" viewBox="0 0 512 512" fill="none" xmlns="http://www.w3.org/2000/svg">
<g clip-path="url(#clip0_129_5)">
<path d="M512 0H0V512H512V0Z" fill="black"/>
<path fill-rule="evenodd" clip-rule="evenodd" d="M164.374 219.289C164.997 289.005 165.314 291.822 174.725 311.121C182.956 328.001 200.577 343.545 217.783 349.103C235.058 354.684 261.192 356.605 278.391 353.559C319.116 346.346 341.928 321.267 346.874 278.272C347.538 272.497 348.085 242.897 348.091 212.495C348.103 149.737 349.416 156.095 336.935 158.463C320.59 161.562 306.672 172.342 299.011 187.836C295.954 194.02 294.299 200.804 294.166 207.702L293.605 236.823C292.661 285.761 291.383 292.076 280.414 301.986C273.931 307.842 267.956 309.747 256.069 309.742C247.783 309.74 245.052 309.186 239.208 306.328C231.132 302.376 227.33 297.879 223.323 287.536C220.602 280.512 220.409 278.022 219.653 239.979C218.812 197.69 218.744 197.173 212.365 184.67C206.346 172.869 189.793 161.163 175.308 158.459C162.399 156.05 163.742 148.576 164.374 219.289Z" fill="white"/>
</g>
<defs>
<clipPath id="clip0_129_5">
<rect width="512" height="512" rx="50" fill="white"/>
</clipPath>
</defs>
</svg>
